<?xml version="1.0" encoding="UTF-8" standalone="no"?>
<svg
   width="15"
   height="15"
   viewBox="0 0 15 14.999999"
   fill="none"
   version="1.1"
   id="svg1"
   xml:space="preserve"
   sodipodi:docname="grids-fill-1.svg"
   inkscape:version="1.3.2 (091e20e, 2023-11-25)"
   xmlns:inkscape="http://www.inkscape.org/namespaces/inkscape"
   xmlns:sodipodi="http://sodipodi.sourceforge.net/DTD/sodipodi-0.dtd"
   xmlns="http://www.w3.org/2000/svg"
   xmlns:svg="http://www.w3.org/2000/svg"><sodipodi:namedview
     id="namedview1"
     pagecolor="#ffffff"
     bordercolor="#666666"
     borderopacity="1.0"
     inkscape:showpageshadow="2"
     inkscape:pageopacity="0.0"
     inkscape:pagecheckerboard="0"
     inkscape:deskcolor="#d1d1d1"
     inkscape:zoom="15.438196"
     inkscape:cx="7.4490568"
     inkscape:cy="7.7081545"
     inkscape:window-width="1992"
     inkscape:window-height="943"
     inkscape:window-x="1479"
     inkscape:window-y="210"
     inkscape:window-maximized="0"
     inkscape:current-layer="svg1" /><defs
     id="defs1" /><rect
     height="12.424728"
     opacity="0"
     width="9.4870005"
     x="2.756"
     y="1.2875"
     id="rect1" /><path
     d="m 4.5169308,13.712229 h 5.9650422 c 1.170886,0 1.760923,-0.424733 1.760923,-1.314605 V 9.3773886 c 0,-0.8831532 -0.590037,-1.3146048 -1.760923,-1.3146048 H 4.5169308 C 3.34605,8.0627838 2.756,8.4942354 2.756,9.3773886 v 3.0202354 c 0,0.889872 0.59005,1.314605 1.7609308,1.314605 z"
     fill="currentColor"
     fill-opacity="0.85"
     id="path2" /><path
     d="m 4.5174308,6.9504202 h 5.9650422 c 1.170886,0 1.760923,-0.4314517 1.760923,-1.3213425 V 2.6155912 c 0,-0.889889 -0.590037,-1.314608 -1.760923,-1.314608 H 4.5174308 C 3.34655,1.3009832 2.7565,1.7257022 2.7565,2.6155912 v 3.0134865 c 0,0.8898908 0.59005,1.3213425 1.7609308,1.3213425 z"
     fill="currentColor"
     fill-opacity="0.85"
     id="path4" /></svg>
