<?xml version="1.0" encoding="UTF-8"?>
<!--Generator: Apple Native CoreSVG 232.5-->
<!DOCTYPE svg
PUBLIC "-//W3C//DTD SVG 1.1//EN"
       "http://www.w3.org/Graphics/SVG/1.1/DTD/svg11.dtd">
<svg version="1.1" xmlns="http://www.w3.org/2000/svg" xmlns:xlink="http://www.w3.org/1999/xlink" width="104.224" height="67.4927">
 <g>
  <rect height="67.4927" opacity="0" width="104.224" x="0" y="0"/>
  <path d="M80.4932 67.4927L97.1924 67.4927C101.843 67.4927 104.187 65.1855 104.187 60.3516L104.187 43.9453C104.187 39.1479 101.843 36.8042 97.1924 36.8042L80.4932 36.8042C75.8423 36.8042 73.4985 39.1479 73.4985 43.9453L73.4985 60.3516C73.4985 65.1855 75.8423 67.4927 80.4932 67.4927ZM80.5664 62.3291C79.2847 62.3291 78.6621 61.6699 78.6621 60.3516L78.6621 43.9819C78.6621 42.627 79.2847 41.9678 80.5664 41.9678L97.0825 41.9678C98.4009 41.9678 99.0234 42.627 99.0234 43.9819L99.0234 60.3516C99.0234 61.6699 98.4009 62.3291 97.0825 62.3291Z" fill="#ffffff" fill-opacity="0.85"/>
  <path d="M43.7622 67.4927L60.4248 67.4927C65.0757 67.4927 67.4194 65.1855 67.4194 60.3516L67.4194 43.9453C67.4194 39.1479 65.0757 36.8042 60.4248 36.8042L43.7622 36.8042C39.0747 36.8042 36.731 39.1479 36.731 43.9453L36.731 60.3516C36.731 65.1855 39.0747 67.4927 43.7622 67.4927ZM43.8354 62.3291C42.5171 62.3291 41.8945 61.6699 41.8945 60.3516L41.8945 43.9819C41.8945 42.627 42.5171 41.9678 43.8354 41.9678L60.3516 41.9678C61.6333 41.9678 62.2559 42.627 62.2559 43.9819L62.2559 60.3516C62.2559 61.6699 61.6333 62.3291 60.3516 62.3291Z" fill="#ffffff" fill-opacity="0.85"/>
  <path d="M6.99463 67.4927L23.6938 67.4927C28.3447 67.4927 30.6885 65.1855 30.6885 60.3516L30.6885 43.9453C30.6885 39.1479 28.3447 36.8042 23.6938 36.8042L6.99463 36.8042C2.34375 36.8042 0 39.1479 0 43.9453L0 60.3516C0 65.1855 2.34375 67.4927 6.99463 67.4927ZM7.06787 62.3291C5.78613 62.3291 5.16357 61.6699 5.16357 60.3516L5.16357 43.9819C5.16357 42.627 5.78613 41.9678 7.06787 41.9678L23.584 41.9678C24.8657 41.9678 25.5249 42.627 25.5249 43.9819L25.5249 60.3516C25.5249 61.6699 24.8657 62.3291 23.584 62.3291Z" fill="#ffffff" fill-opacity="0.85"/>
  <path d="M80.4932 30.7617L97.1924 30.7617C101.843 30.7617 104.187 28.418 104.187 23.584L104.187 7.21436C104.187 2.38037 101.843 0.0732422 97.1924 0.0732422L80.4932 0.0732422C75.8423 0.0732422 73.4985 2.38037 73.4985 7.21436L73.4985 23.584C73.4985 28.418 75.8423 30.7617 80.4932 30.7617ZM80.5664 25.5981C79.2847 25.5981 78.6621 24.939 78.6621 23.584L78.6621 7.21436C78.6621 5.896 79.2847 5.23682 80.5664 5.23682L97.0825 5.23682C98.4009 5.23682 99.0234 5.896 99.0234 7.21436L99.0234 23.584C99.0234 24.939 98.4009 25.5981 97.0825 25.5981Z" fill="#ffffff" fill-opacity="0.85"/>
  <path d="M43.7622 30.7617L60.4248 30.7617C65.0757 30.7617 67.4194 28.418 67.4194 23.584L67.4194 7.21436C67.4194 2.38037 65.0757 0.0732422 60.4248 0.0732422L43.7622 0.0732422C39.0747 0.0732422 36.731 2.38037 36.731 7.21436L36.731 23.584C36.731 28.418 39.0747 30.7617 43.7622 30.7617ZM43.8354 25.5981C42.5171 25.5981 41.8945 24.939 41.8945 23.584L41.8945 7.21436C41.8945 5.896 42.5171 5.23682 43.8354 5.23682L60.3516 5.23682C61.6333 5.23682 62.2559 5.896 62.2559 7.21436L62.2559 23.584C62.2559 24.939 61.6333 25.5981 60.3516 25.5981Z" fill="#ffffff" fill-opacity="0.85"/>
  <path d="M6.99463 30.7617L23.6938 30.7617C28.3447 30.7617 30.6885 28.418 30.6885 23.584L30.6885 7.21436C30.6885 2.38037 28.3447 0.0732422 23.6938 0.0732422L6.99463 0.0732422C2.34375 0.0732422 0 2.38037 0 7.21436L0 23.584C0 28.418 2.34375 30.7617 6.99463 30.7617ZM7.06787 25.5981C5.78613 25.5981 5.16357 24.939 5.16357 23.584L5.16357 7.21436C5.16357 5.896 5.78613 5.23682 7.06787 5.23682L23.584 5.23682C24.8657 5.23682 25.5249 5.896 25.5249 7.21436L25.5249 23.584C25.5249 24.939 24.8657 25.5981 23.584 25.5981Z" fill="#ffffff" fill-opacity="0.85"/>
 </g>
</svg>
