<?xml version="1.0" encoding="UTF-8"?>
<!--Generator: Apple Native CoreSVG 232.5-->
<!DOCTYPE svg
PUBLIC "-//W3C//DTD SVG 1.1//EN"
       "http://www.w3.org/Graphics/SVG/1.1/DTD/svg11.dtd">
<svg version="1.1" xmlns="http://www.w3.org/2000/svg" xmlns:xlink="http://www.w3.org/1999/xlink" width="81.4819" height="67.4927">
 <g>
  <rect height="67.4927" opacity="0" width="81.4819" x="0" y="0"/>
  <path d="M50.7568 67.4927L74.4507 67.4927C79.1016 67.4927 81.4453 65.1855 81.4453 60.3516L81.4453 43.9453C81.4453 39.1479 79.1016 36.8042 74.4507 36.8042L50.7568 36.8042C46.106 36.8042 43.7622 39.1479 43.7622 43.9453L43.7622 60.3516C43.7622 65.1855 46.106 67.4927 50.7568 67.4927Z" fill="#ffffff" fill-opacity="0.85"/>
  <path d="M6.99463 67.4927L30.6885 67.4927C35.3394 67.4927 37.6831 65.1855 37.6831 60.3516L37.6831 43.9453C37.6831 39.1479 35.3394 36.8042 30.6885 36.8042L6.99463 36.8042C2.34375 36.8042 0 39.1479 0 43.9453L0 60.3516C0 65.1855 2.34375 67.4927 6.99463 67.4927Z" fill="#ffffff" fill-opacity="0.85"/>
  <path d="M50.7568 30.7617L74.4507 30.7617C79.1016 30.7617 81.4453 28.418 81.4453 23.584L81.4453 7.21436C81.4453 2.38037 79.1016 0.0732422 74.4507 0.0732422L50.7568 0.0732422C46.106 0.0732422 43.7622 2.38037 43.7622 7.21436L43.7622 23.584C43.7622 28.418 46.106 30.7617 50.7568 30.7617Z" fill="#ffffff" fill-opacity="0.85"/>
  <path d="M6.99463 30.7617L30.6885 30.7617C35.3394 30.7617 37.6831 28.418 37.6831 23.584L37.6831 7.21436C37.6831 2.38037 35.3394 0.0732422 30.6885 0.0732422L6.99463 0.0732422C2.34375 0.0732422 0 2.38037 0 7.21436L0 23.584C0 28.418 2.34375 30.7617 6.99463 30.7617Z" fill="#ffffff" fill-opacity="0.85"/>
 </g>
</svg>
