<?xml version="1.0" encoding="UTF-8" standalone="no"?>
<svg
   width="15"
   height="15"
   viewBox="0 0 15 14.999999"
   fill="none"
   version="1.1"
   id="svg1"
   xml:space="preserve"
   xmlns="http://www.w3.org/2000/svg"
   xmlns:svg="http://www.w3.org/2000/svg"><defs
     id="defs1" /><g
     id="g4"

     transform="matrix(0.18408996,0,0,0.18408996,0,2)"><rect
       height="67.492699"
       opacity="0"
       width="81.481903"
       x="0"
       y="-3.8703904"
       id="rect1"
        /><path
       d="m 50.7568,63.62231 h 23.6939 c 4.6509,0 6.9946,-2.3072 6.9946,-7.1411 v -16.4063 c 0,-4.7974 -2.3437,-7.1411 -6.9946,-7.1411 H 50.7568 c -4.6508,0 -6.9946,2.3437 -6.9946,7.1411 v 16.4063 c 0,4.8339 2.3438,7.1411 6.9946,7.1411 z"
       fill="currentColor"
       fill-opacity="0.85"
       id="path1"
        /><path
       d="M 6.99463,63.62231 H 30.6885 c 4.6509,0 6.9946,-2.3072 6.9946,-7.1411 v -16.4063 c 0,-4.7974 -2.3437,-7.1411 -6.9946,-7.1411 H 6.99463 C 2.34375,32.93381 0,35.27751 0,40.07491 v 16.4063 c 0,4.8339 2.34375,7.1411 6.99463,7.1411 z"
       fill="currentColor"
       fill-opacity="0.85"
       id="path2"
        /><path
       d="m 50.7568,26.89131 h 23.6939 c 4.6509,0 6.9946,-2.3437 6.9946,-7.1777 V 3.3439697 c 0,-4.83399 -2.3437,-7.1411178 -6.9946,-7.1411178 H 50.7568 c -4.6508,0 -6.9946,2.3071278 -6.9946,7.1411178 V 19.71361 c 0,4.834 2.3438,7.1777 6.9946,7.1777 z"
       fill="currentColor"
       fill-opacity="0.85"
       id="path3"
        /><path
       d="M 6.99463,26.89131 H 30.6885 c 4.6509,0 6.9946,-2.3437 6.9946,-7.1777 V 3.3439697 c 0,-4.83399 -2.3437,-7.1411178 -6.9946,-7.1411178 H 6.99463 C 2.34375,-3.7971481 0,-1.4900203 0,3.3439697 V 19.71361 c 0,4.834 2.34375,7.1777 6.99463,7.1777 z"
       fill="currentColor"
       fill-opacity="0.85"
       id="path4"
        /></g></svg>
