<?xml version="1.0" encoding="UTF-8" standalone="no"?>
<svg
   width="15"
   height="15"
   viewBox="0 0 15 14.999999"
   fill="none"
   version="1.1"
   id="svg1"
   sodipodi:docname="grids-fill-3.svg"
   inkscape:version="1.3.2 (091e20e, 2023-11-25)"
   xml:space="preserve"
   inkscape:export-filename="../../../../Volumes/Samsung/_Projects-on-Samsung/Remix/artepic/other/svg-icons/grids-fill-2.svg"
   inkscape:export-xdpi="96"
   inkscape:export-ydpi="96"
   xmlns:inkscape="http://www.inkscape.org/namespaces/inkscape"
   xmlns:sodipodi="http://sodipodi.sourceforge.net/DTD/sodipodi-0.dtd"
   xmlns="http://www.w3.org/2000/svg"
   xmlns:svg="http://www.w3.org/2000/svg"><defs
     id="defs1" /><sodipodi:namedview
     id="namedview1"
     pagecolor="#ffffff"
     bordercolor="#666666"
     borderopacity="1.0"
     inkscape:showpageshadow="2"
     inkscape:pageopacity="0.0"
     inkscape:pagecheckerboard="0"
     inkscape:deskcolor="#e5e5e5"
     inkscape:zoom="21.812918"
     inkscape:cx="11.186032"
     inkscape:cy="13.157341"
     inkscape:window-width="1992"
     inkscape:window-height="971"
     inkscape:window-x="1479"
     inkscape:window-y="210"
     inkscape:window-maximized="0"
     inkscape:current-layer="g4"
     showguides="true"><sodipodi:guide
       position="54.469764,-47.903624"
       orientation="0,-1"
       id="guide1"
       inkscape:locked="false" /></sodipodi:namedview><g
     id="g4"
     inkscape:label="g4"
     style="fill:#000000;fill-opacity:1"
     transform="matrix(0.18408996,0,0,0.18408996,0,2)"><rect
       height="67.492699"
       opacity="0"
       width="53.027214"
       x="4.9890139e-07"
       y="-3.8731065"
       id="rect1" /><path
       d="m 33.031773,63.619594 h 15.419638 c 3.026737,0 4.551982,-2.3072 4.551982,-7.1411 v -16.4063 c 0,-4.7974 -1.525245,-7.1411 -4.551982,-7.1411 H 33.031773 c -3.026672,0 -4.551982,2.3437 -4.551982,7.1411 v 16.4063 c 0,4.8339 1.52531,7.1411 4.551982,7.1411 z"
       fill="currentColor"
       fill-opacity="0.85"
       id="path1" /><path
       d="m 4.552002,63.619594 h 15.419619 c 3.026736,0 4.551982,-2.3072 4.551982,-7.1411 v -16.4063 c 0,-4.7974 -1.525246,-7.1411 -4.551982,-7.1411 H 4.552002 C 1.525278,32.931094 0,35.274794 0,40.072194 v 16.4063 c 0,4.8339 1.525278,7.1411 4.552002,7.1411 z"
       fill="currentColor"
       fill-opacity="0.85"
       id="path2" /><path
       d="m 33.031773,26.888594 h 15.419638 c 3.026737,0 4.551982,-2.3437 4.551982,-7.1777 V 3.3412537 c 0,-4.83399 -1.525245,-7.1411178 -4.551982,-7.1411178 H 33.031773 c -3.026672,0 -4.551982,2.3071278 -4.551982,7.1411178 V 19.710894 c 0,4.834 1.52531,7.1777 4.551982,7.1777 z"
       fill="currentColor"
       fill-opacity="0.85"
       id="path3" /><path
       d="m 61.510278,63.620769 h 15.419635 c 3.026733,0 4.551983,-2.3072 4.551983,-7.1411 v -16.4063 c 0,-4.7974 -1.52525,-7.1411 -4.551983,-7.1411 H 61.510278 c -3.02667,0 -4.551981,2.3437 -4.551981,7.1411 v 16.4063 c 0,4.8339 1.525311,7.1411 4.551981,7.1411 z"
       fill="currentColor"
       fill-opacity="0.85"
       id="path5" /><path
       d="M 61.510284,26.888686 H 76.92992 c 3.026736,0 4.551986,-2.3437 4.551986,-7.1777 V 3.3413457 c 0,-4.8339905 -1.52525,-7.1411183 -4.551986,-7.1411183 H 61.510284 c -3.026676,0 -4.551987,2.3071278 -4.551987,7.1411183 V 19.710986 c 0,4.834 1.525311,7.1777 4.551987,7.1777 z"
       fill="currentColor"
       fill-opacity="0.85"
       id="path6" /><path
       d="m 4.552002,26.888594 h 15.419619 c 3.026736,0 4.551982,-2.3437 4.551982,-7.1777 V 3.3412537 c 0,-4.83399 -1.525246,-7.1411178 -4.551982,-7.1411178 H 4.552002 C 1.525278,-3.7998641 0,-1.4927363 0,3.3412537 V 19.710894 c 0,4.834 1.525278,7.1777 4.552002,7.1777 z"
       fill="currentColor"
       fill-opacity="0.85"
       id="path4" /></g></svg>
