<svg width="15" height="15" viewBox="0 0 15 15" fill="none" xmlns="http://www.w3.org/2000/svg"><defs
     id="defs1" /><g
     id="g1"><path
       d="M 15,7.5 C 15,11.598516 11.591318,15 7.495346,15 3.408656,15 0,11.598516 0,7.5 0,3.401484 3.399374,0 7.486063,0 11.582036,0 15,3.401484 15,7.5 Z M 9.492265,4.5725 7.495346,6.552057 5.526325,4.581788 C 5.396293,4.460964 5.24767,4.39592 5.052635,4.39592 c -0.371531,0 -0.678033,0.288091 -0.678033,0.678429 0,0.17658 0.07431,0.343871 0.19506,0.473984 L 6.529401,7.509288 4.569662,9.470269 c -0.120749,0.130113 -0.19506,0.2974037 -0.19506,0.4739837 0,0.3903393 0.306502,0.6970313 0.678033,0.6970313 0.195035,0 0.371506,-0.06507 0.492255,-0.195182 L 7.495346,8.475833 9.45511,10.446102 c 0.120724,0.130113 0.297194,0.195182 0.4829717,0.195182 0.3900973,0 0.6965993,-0.306692 0.6965993,-0.6970313 0,-0.185893 -0.06503,-0.3531597 -0.204343,-0.4832717 L 8.470574,7.509288 10.43962,5.539045 c 0.148597,-0.139401 0.204344,-0.297405 0.204344,-0.483273 0,-0.38105 -0.306503,-0.678454 -0.6873163,-0.678454 -0.1764707,0 -0.3250677,0.06507 -0.4643827,0.195182 z"
       fill="#000"
       fill-opacity="0.70"
       id="path1"
       clip-rule="evenodd"
       fill-rule="evenodd"
       style="border-radius: 50%; " /></g></svg>
