<?xml version="1.0" encoding="iso-8859-1"?>
<!-- Uploaded to: SVG Repo, www.svgrepo.com, Generator: SVG Repo Mixer Tools -->
<svg height="800px" width="800px" version="1.1" id="Layer_1" xmlns="http://www.w3.org/2000/svg" xmlns:xlink="http://www.w3.org/1999/xlink" 
	 viewBox="0 0 497.7 497.7" xml:space="preserve">
<path style="fill:#48A1AF;" d="M496.95,248c0-137-111.1-248-248.1-248S0.75,111,0.75,248s111.1,248.1,248.1,248.1
	C385.85,496.1,496.95,385,496.95,248z"/>
<path style="fill:#172023;" d="M248.55,335c-77.2,0-139.1,22.1-146.4,49.3c-3.3,12.2-7,35.2-10.1,57.5
	c42.7,34.9,97.4,55.9,156.9,55.9s114.1-21,156.9-55.9c-3.2-22.3-6.9-45.4-10.1-57.5C388.25,357.1,325.65,335,248.55,335z"/>
<g>
	<path style="fill:#FFFFFF;" d="M249.65,457.8c-58.2,0-111.3-3.9-151.8-10.4c17.2,13.2,36.3,24.3,56.7,32.7
		c29,2.4,61.2,3.7,95.2,3.7c33.1,0,64.6-1.3,93.1-3.6c20.4-8.3,39.4-19.3,56.6-32.5C359.15,454,306.85,457.8,249.65,457.8z"/>
	<path style="fill:#FFFFFF;" d="M402.65,421.5c-1.4-8.9-2.8-17.3-4.2-24.4c-17.1,2.6-36.4,4.7-57.2,6.4c-28.2,2.2-59.2,3.4-91.9,3.4
		c-32.5,0-63.5-1.2-91.5-3.4c-21.4-1.7-41-3.9-58.5-6.5c-1.4,7.2-2.9,15.6-4.3,24.6c41,6.5,94.8,10.5,153.8,10.5
		C307.85,432,361.75,428,402.65,421.5z"/>
	<path style="fill:#FFFFFF;" d="M248.85,382.9c37,0,71.9-1.7,102.4-4.6c13.7-1.3,26.6-2.9,38.4-4.7c-6.6-7.8-17.7-14.8-32.3-20.7
		c-25.9,4.6-64.9,7.5-108.5,7.5c-43.7,0-82.8-2.9-108.7-7.5c-14.5,5.9-25.6,13-32.1,20.8c12,1.8,25.1,3.4,39.2,4.8
		C177.55,381.2,212.15,382.9,248.85,382.9z"/>
</g>
<path style="fill:#E2A379;" d="M287.75,283.7h-77.8c12.1,36.6,1,53.3,1,53.3s11.9,13.2,37.9,13.2s37.9-13.2,37.9-13.2
	S275.65,320.3,287.75,283.7z"/>
<polygon style="fill:#7C2A0A;" points="322.85,278.4 310.85,271.7 298.85,291 290.35,277.7 210.85,253.7 208.85,267 199.55,286.4 
	191.55,277.7 177.35,286.7 177.35,259 160.85,255 177.35,230.4 177.35,221.7 320.35,221.7 321.55,235 336.15,254.4 324.15,257 "/>
<path style="fill:#F4B382;" d="M328.65,176.8c0-92.4-35.7-113.6-79.8-113.6c-44,0-79.8,21.2-79.8,113.6c0,31.3,5.6,55.8,14,74.7
	c18.4,41.6,50.3,56.1,65.8,56.1c15.4,0,47.3-14.5,65.8-56.1C323.05,232.6,328.65,208.1,328.65,176.8z"/>
<path style="fill:#684112;" d="M328.65,176.8c0-92.4-35.7-113.6-79.8-113.6c-44,0-79.8,21.2-79.8,113.6c0,15.6,39.9-36.4,79.8-36.4
	C288.75,140.4,328.65,192.4,328.65,176.8z"/>
<g>
	<path style="fill:#F4B382;" d="M161.45,209.3c4.3,25.2,9.6,26.3,17.3,25l-8.1-54.8C162.95,180.9,157.15,184.2,161.45,209.3z"/>
	<path style="fill:#F4B382;" d="M327.25,179.6l-8.1,54.8c7.6,1.3,13,0.1,17.3-25C340.65,184.2,334.85,180.9,327.25,179.6z"/>
</g>
<g>
	<path style="fill:#7C2A0A;" d="M296.15,77.2c0,0,12.3,7.1,22.7,26.3c10.7,19.9,30.7,58.7,6.8,114.7c0,0-30.2-87.3-63.1-124.6
		C262.75,93.1,289.45,80.4,296.15,77.2z"/>
	<path style="fill:#7C2A0A;" d="M289.45,88.2c-16.3-17.1-77.9-17.5-77.9-17.5c-24.7,13-58.3,60-36,148.8c0,0,125.1-84.7,122.7-102.5
		C298.15,116.1,299.75,99.2,289.45,88.2z"/>
	<path style="fill:#7C2A0A;" d="M257.05,69.1L257.05,69.1c-49.9,6.8-95.8,53.4-62.2,143.7c0,0,125.1-84.7,122.7-102.5
		c0-0.3,0.1-1.9,0-4.4c-7.7-18.5-19-29.6-32.5-35.9C270.75,67.3,257.05,69.1,257.05,69.1z"/>
	<path style="fill:#7C2A0A;" d="M244.45,74.7c-30.9,20.8-48.8,63.5-24.2,129.5c0,0,69.1-46.8,103.6-78.1
		C314.55,84.4,250.95,70.3,244.45,74.7z"/>
	<path style="fill:#7C2A0A;" d="M305.85,88.5c12.7,18.7,30.7,58.7,6.8,114.7c0,0-30.2-87.3-63.1-124.6
		C249.75,78.1,293.15,69.9,305.85,88.5z"/>
	<path style="fill:#7C2A0A;" d="M299.65,190.2c0,0-10.8-31.4-26.6-64.6C262.45,103.5,323.55,134.2,299.65,190.2z"/>
</g>
<path style="fill:#CC785E;" d="M275.55,265.4c0,0-14.2,9.6-26.7,9.6s-26.7-9.6-26.7-9.6c0-1.4,11.3-5.3,16.1-6
	c3-0.5,10.6,2.5,10.6,2.5s7.5-2.9,10.4-2.5C264.15,260.1,275.55,265.4,275.55,265.4z"/>
<path style="fill:#C16952;" d="M275.55,265.4c0,0-14.2,13.5-26.7,13.5s-26.7-13.5-26.7-13.5s6.5,1.5,19.6,0.7c2.2-0.1,5.1,1.6,7,1.6
	c1.7,0,4.2-1.8,6.1-1.7C268.65,266.8,275.55,265.4,275.55,265.4z"/>
<g>
	<path style="fill:#3A3A3A;" d="M328.75,122.3c0-49.4-35.8-60.8-79.9-60.8s-79.9,11.3-79.9,60.8H328.75z"/>
	<path style="fill:#3A3A3A;" d="M191.15,122.3h115.3c-15.7-4.8-35.8-6.4-57.7-6.4C226.95,115.9,206.95,117.5,191.15,122.3z"/>
</g>
<g>
	<path style="fill:#FFFFFF;" d="M325.25,98.8c-3.5-10.3-9.4-18-17.2-23.6c-16-5.2-36.6-6.9-59.2-6.9s-43.3,1.7-59.2,6.9
		c-7.8,5.6-13.7,13.2-17.2,23.6c16.4-11.9,44.5-15.3,76.4-15.3S308.85,86.9,325.25,98.8z"/>
	<path style="fill:#FFFFFF;" d="M328.65,118.8c-15.7-14.1-45.6-18-79.8-18s-64.1,3.9-79.8,18c0,1.2-0.1,2.4-0.1,3.6h22.2
		c15.7-4.8,35.8-6.4,57.7-6.4s41.9,1.6,57.7,6.4h22.2C328.75,121.1,328.65,119.9,328.65,118.8z"/>
</g>
<path style="fill:#2D2D2D;" d="M343.05,152.3c0,5.7-4.6,10.3-10.3,10.3c0,0-33.9-13.7-84-13.7s-84,13.7-84,13.7
	c-5.7,0-10.3-4.6-10.3-10.3v-20.4c0-5.7,4.6-10.3,10.3-10.3c0,0,42.7-13.7,84-13.7s84,13.7,84,13.7c5.7,0,10.3,4.6,10.3,10.3V152.3z
	"/>
<g>
	<path style="fill:#FFFFFF;" d="M164.85,121.6c-0.2,0-0.4,0-0.6,0v40.9c0.2,0,0.4,0,0.6,0c0,0,4.8-2,13.5-4.4v-40.4
		C169.95,119.9,164.85,121.6,164.85,121.6z"/>
	<path style="fill:#FFFFFF;" d="M195.25,113.9v40.2c4.3-0.9,9-1.7,14.1-2.4v-40.4C204.45,112.1,199.75,113,195.25,113.9z"/>
	<path style="fill:#FFFFFF;" d="M226.25,109.1v40.6c4.5-0.4,9.2-0.6,14.1-0.8V108C235.65,108.2,230.95,108.6,226.25,109.1z"/>
	<path style="fill:#FFFFFF;" d="M257.25,108v40.9c4.9,0.2,9.6,0.4,14.1,0.8V109C266.75,108.6,262.05,108.2,257.25,108z"/>
	<path style="fill:#FFFFFF;" d="M288.25,111.3v40.4c5.1,0.7,9.8,1.6,14.1,2.4v-40.2C297.95,113,293.25,112.1,288.25,111.3z"/>
	<path style="fill:#FFFFFF;" d="M332.85,121.6c0,0-5.1-1.6-13.5-3.8v40.4c8.7,2.4,13.5,4.4,13.5,4.4c0.2,0,0.4,0,0.6,0v-40.9
		C333.25,121.6,333.05,121.6,332.85,121.6z"/>
</g>
</svg>